<mxfile host="app.diagrams.net" agent="Mozilla/5.0 (Windows NT 10.0; Win64; x64) AppleWebKit/537.36 (KHTML, like Gecko) Chrome/128.0.0.0 Safari/537.36" version="24.7.12">
  <diagram name="Page-1" id="WV9xIQ6IZs9nmJnuFk1x">
    <mxGraphModel dx="1050" dy="522" grid="1" gridSize="10" guides="1" tooltips="1" connect="1" arrows="1" fold="1" page="1" pageScale="1" pageWidth="850" pageHeight="1100" background="none" math="0" shadow="0">
      <root>
        <mxCell id="0" />
        <mxCell id="1" parent="0" />
        <mxCell id="RgGuMsB46pDfwZEgmnOT-1" value="" style="rounded=0;whiteSpace=wrap;html=1;fillColor=#f5f5f5;fontColor=#333333;strokeColor=#666666;dashed=1;strokeWidth=4;" vertex="1" parent="1">
          <mxGeometry x="60" y="40" width="690" height="480" as="geometry" />
        </mxCell>
        <mxCell id="RgGuMsB46pDfwZEgmnOT-2" value="&lt;span style=&quot;color: rgba(0, 0, 0, 0); font-family: monospace; font-size: 0px; text-align: start; text-wrap: nowrap;&quot;&gt;%3CmxGraphModel%3E%3Croot%3E%3CmxCell%20id%3D%220%22%2F%3E%3CmxCell%20id%3D%221%22%20parent%3D%220%22%2F%3E%3CmxCell%20id%3D%222%22%20value%3D%22Subnet-public-1a%22%20style%3D%22text%3Bhtml%3D1%3Balign%3Dcenter%3BverticalAlign%3Dmiddle%3BwhiteSpace%3Dwrap%3Brounded%3D0%3BfillColor%3D%231ba1e2%3BstrokeColor%3D%23006EAF%3BfontColor%3D%23ffffff%3B%22%20vertex%3D%221%22%20parent%3D%221%22%3E%3CmxGeometry%20x%3D%22202.5%22%20y%3D%22360%22%20width%3D%2295%22%20height%3D%2220%22%20as%3D%22geometry%22%2F%3E%3C%2FmxCell%3E%3C%2Froot%3E%3C%2FmxGraphModel%3E&lt;/span&gt;" style="rounded=1;whiteSpace=wrap;html=1;dashed=1;strokeColor=#FF99FF;" vertex="1" parent="1">
          <mxGeometry x="100" y="90" width="560" height="340" as="geometry" />
        </mxCell>
        <mxCell id="RgGuMsB46pDfwZEgmnOT-3" value="" style="rounded=1;whiteSpace=wrap;html=1;" vertex="1" parent="1">
          <mxGeometry x="160" y="180" width="120" height="160" as="geometry" />
        </mxCell>
        <mxCell id="RgGuMsB46pDfwZEgmnOT-4" value="" style="rounded=1;whiteSpace=wrap;html=1;" vertex="1" parent="1">
          <mxGeometry x="440" y="180" width="120" height="160" as="geometry" />
        </mxCell>
        <mxCell id="RgGuMsB46pDfwZEgmnOT-5" value="" style="outlineConnect=0;dashed=0;verticalLabelPosition=bottom;verticalAlign=top;align=center;html=1;shape=mxgraph.aws3.ec2;fillColor=#F58534;gradientColor=none;" vertex="1" parent="1">
          <mxGeometry x="205" y="235" width="30" height="50" as="geometry" />
        </mxCell>
        <mxCell id="RgGuMsB46pDfwZEgmnOT-6" value="" style="outlineConnect=0;dashed=0;verticalLabelPosition=bottom;verticalAlign=top;align=center;html=1;shape=mxgraph.aws3.ec2;fillColor=#F58534;gradientColor=none;" vertex="1" parent="1">
          <mxGeometry x="480" y="225" width="30" height="50" as="geometry" />
        </mxCell>
        <mxCell id="RgGuMsB46pDfwZEgmnOT-8" value="" style="outlineConnect=0;dashed=0;verticalLabelPosition=bottom;verticalAlign=top;align=center;html=1;shape=mxgraph.aws3.vpn_gateway;fillColor=#F58534;gradientColor=none;" vertex="1" parent="1">
          <mxGeometry x="165" y="320" width="40" height="50" as="geometry" />
        </mxCell>
        <mxCell id="RgGuMsB46pDfwZEgmnOT-9" value="" style="outlineConnect=0;dashed=0;verticalLabelPosition=bottom;verticalAlign=top;align=center;html=1;shape=mxgraph.aws3.vpn_gateway;fillColor=#F58534;gradientColor=none;" vertex="1" parent="1">
          <mxGeometry x="425" y="320" width="40" height="50" as="geometry" />
        </mxCell>
        <mxCell id="RgGuMsB46pDfwZEgmnOT-10" value="" style="outlineConnect=0;dashed=0;verticalLabelPosition=bottom;verticalAlign=top;align=center;html=1;shape=mxgraph.aws3.route_table;fillColor=#F58536;gradientColor=none;" vertex="1" parent="1">
          <mxGeometry x="260" y="255" width="40" height="65" as="geometry" />
        </mxCell>
        <mxCell id="RgGuMsB46pDfwZEgmnOT-11" value="" style="outlineConnect=0;dashed=0;verticalLabelPosition=bottom;verticalAlign=top;align=center;html=1;shape=mxgraph.aws3.route_table;fillColor=#F58536;gradientColor=none;" vertex="1" parent="1">
          <mxGeometry x="420" y="210" width="40" height="65" as="geometry" />
        </mxCell>
        <mxCell id="RgGuMsB46pDfwZEgmnOT-12" value="" style="outlineConnect=0;dashed=0;verticalLabelPosition=bottom;verticalAlign=top;align=center;html=1;shape=mxgraph.aws3.internet_gateway;fillColor=#F58534;gradientColor=none;" vertex="1" parent="1">
          <mxGeometry x="235" y="150" width="30" height="40" as="geometry" />
        </mxCell>
        <mxCell id="RgGuMsB46pDfwZEgmnOT-13" value="" style="outlineConnect=0;dashed=0;verticalLabelPosition=bottom;verticalAlign=top;align=center;html=1;shape=mxgraph.aws3.vpc_nat_gateway;fillColor=#F58536;gradientColor=none;" vertex="1" parent="1">
          <mxGeometry x="270" y="190" width="40" height="50" as="geometry" />
        </mxCell>
        <mxCell id="RgGuMsB46pDfwZEgmnOT-14" value="" style="outlineConnect=0;dashed=0;verticalLabelPosition=bottom;verticalAlign=top;align=center;html=1;shape=mxgraph.aws3.cloud_2;fillColor=#F58534;gradientColor=none;" vertex="1" parent="1">
          <mxGeometry x="740" y="15" width="50" height="45" as="geometry" />
        </mxCell>
        <mxCell id="RgGuMsB46pDfwZEgmnOT-15" value="" style="outlineConnect=0;dashed=0;verticalLabelPosition=bottom;verticalAlign=top;align=center;html=1;shape=mxgraph.aws3.vpc;fillColor=#F58534;gradientColor=none;" vertex="1" parent="1">
          <mxGeometry x="80" y="50" width="57.5" height="40" as="geometry" />
        </mxCell>
        <mxCell id="RgGuMsB46pDfwZEgmnOT-16" value="VPC" style="text;html=1;align=center;verticalAlign=middle;whiteSpace=wrap;rounded=0;fillColor=#1ba1e2;strokeColor=default;fontColor=#ffffff;" vertex="1" parent="1">
          <mxGeometry x="120" y="90" width="40" height="20" as="geometry" />
        </mxCell>
        <mxCell id="RgGuMsB46pDfwZEgmnOT-18" value="InternetGatway" style="text;html=1;align=center;verticalAlign=middle;whiteSpace=wrap;rounded=0;fillColor=#1ba1e2;strokeColor=#006EAF;fontColor=#ffffff;" vertex="1" parent="1">
          <mxGeometry x="265" y="160" width="95" height="20" as="geometry" />
        </mxCell>
        <mxCell id="RgGuMsB46pDfwZEgmnOT-19" value="NAT Gatway" style="text;html=1;align=center;verticalAlign=middle;whiteSpace=wrap;rounded=0;fillColor=#1ba1e2;strokeColor=#006EAF;fontColor=#ffffff;" vertex="1" parent="1">
          <mxGeometry x="300" y="205" width="95" height="20" as="geometry" />
        </mxCell>
        <mxCell id="RgGuMsB46pDfwZEgmnOT-20" value="Route Table" style="text;html=1;align=center;verticalAlign=middle;whiteSpace=wrap;rounded=0;fillColor=#1ba1e2;strokeColor=#006EAF;fontColor=#ffffff;" vertex="1" parent="1">
          <mxGeometry x="265" y="320" width="95" height="20" as="geometry" />
        </mxCell>
        <mxCell id="RgGuMsB46pDfwZEgmnOT-21" value="Route Table" style="text;html=1;align=center;verticalAlign=middle;whiteSpace=wrap;rounded=0;fillColor=#1ba1e2;strokeColor=#006EAF;fontColor=#ffffff;" vertex="1" parent="1">
          <mxGeometry x="385" y="277.5" width="95" height="20" as="geometry" />
        </mxCell>
        <mxCell id="RgGuMsB46pDfwZEgmnOT-22" value="Subnet-public-1a" style="text;html=1;align=center;verticalAlign=middle;whiteSpace=wrap;rounded=0;fillColor=#1ba1e2;strokeColor=#006EAF;fontColor=#ffffff;" vertex="1" parent="1">
          <mxGeometry x="202.5" y="360" width="95" height="20" as="geometry" />
        </mxCell>
        <mxCell id="RgGuMsB46pDfwZEgmnOT-23" value="Subnet-Private-1b" style="text;html=1;align=center;verticalAlign=middle;whiteSpace=wrap;rounded=0;fillColor=#1ba1e2;strokeColor=#006EAF;fontColor=#ffffff;" vertex="1" parent="1">
          <mxGeometry x="470" y="350" width="130" height="20" as="geometry" />
        </mxCell>
        <mxCell id="RgGuMsB46pDfwZEgmnOT-24" value="EC2" style="text;html=1;align=center;verticalAlign=middle;whiteSpace=wrap;rounded=0;fillColor=#1ba1e2;strokeColor=#006EAF;fontColor=#ffffff;" vertex="1" parent="1">
          <mxGeometry x="210" y="285" width="32.5" height="25" as="geometry" />
        </mxCell>
        <mxCell id="RgGuMsB46pDfwZEgmnOT-25" value="EC2" style="text;html=1;align=center;verticalAlign=middle;whiteSpace=wrap;rounded=0;fillColor=#1ba1e2;strokeColor=#006EAF;fontColor=#ffffff;" vertex="1" parent="1">
          <mxGeometry x="510" y="255" width="32.5" height="25" as="geometry" />
        </mxCell>
        <mxCell id="RgGuMsB46pDfwZEgmnOT-26" value="" style="endArrow=none;dashed=1;html=1;dashPattern=1 3;strokeWidth=2;rounded=0;strokeColor=default;" edge="1" parent="1">
          <mxGeometry width="50" height="50" relative="1" as="geometry">
            <mxPoint x="400" y="300" as="sourcePoint" />
            <mxPoint x="450" y="250" as="targetPoint" />
          </mxGeometry>
        </mxCell>
        <mxCell id="RgGuMsB46pDfwZEgmnOT-27" value="AWS account" style="text;html=1;align=center;verticalAlign=middle;whiteSpace=wrap;rounded=0;fillColor=#1ba1e2;strokeColor=#006EAF;fontColor=#ffffff;" vertex="1" parent="1">
          <mxGeometry x="740" y="60" width="80" height="20" as="geometry" />
        </mxCell>
        <mxCell id="RgGuMsB46pDfwZEgmnOT-28" value="Text" style="text;html=1;align=center;verticalAlign=middle;whiteSpace=wrap;rounded=0;" vertex="1" parent="1">
          <mxGeometry x="390" y="260" width="60" height="30" as="geometry" />
        </mxCell>
        <mxCell id="RgGuMsB46pDfwZEgmnOT-29" value="&lt;b&gt;10.0.0.0/16&lt;/b&gt;" style="text;html=1;align=center;verticalAlign=middle;whiteSpace=wrap;rounded=0;" vertex="1" parent="1">
          <mxGeometry x="165" y="85" width="60" height="30" as="geometry" />
        </mxCell>
        <mxCell id="RgGuMsB46pDfwZEgmnOT-30" value="&lt;b&gt;10.0.1.0/20&lt;/b&gt;" style="text;html=1;align=center;verticalAlign=middle;whiteSpace=wrap;rounded=0;" vertex="1" parent="1">
          <mxGeometry x="210" y="380" width="60" height="30" as="geometry" />
        </mxCell>
        <mxCell id="RgGuMsB46pDfwZEgmnOT-31" value="&lt;b&gt;10.0.2.0/20&lt;/b&gt;" style="text;html=1;align=center;verticalAlign=middle;whiteSpace=wrap;rounded=0;" vertex="1" parent="1">
          <mxGeometry x="500" y="370" width="60" height="30" as="geometry" />
        </mxCell>
      </root>
    </mxGraphModel>
  </diagram>
</mxfile>
